<mxfile host="app.diagrams.net" agent="Mozilla/5.0 (Windows NT 10.0; Win64; x64) AppleWebKit/537.36 (KHTML, like Gecko) Chrome/134.0.0.0 Safari/537.36" version="26.0.16">
  <diagram name="Page-1" id="vCJ1SuQY2YfiyzVbhze-">
    <mxGraphModel dx="2435" dy="1608" grid="0" gridSize="10" guides="1" tooltips="1" connect="1" arrows="1" fold="1" page="0" pageScale="1" pageWidth="850" pageHeight="1100" math="0" shadow="0">
      <root>
        <mxCell id="0" />
        <mxCell id="1" parent="0" />
        <mxCell id="ZiVLXB9md4UKHXkuWraJ-1" value="Cisco 3750" style="image;html=1;image=img/lib/clip_art/networking/Switch_128x128.png" vertex="1" parent="1">
          <mxGeometry x="-81" y="337" width="80" height="80" as="geometry" />
        </mxCell>
        <mxCell id="ZiVLXB9md4UKHXkuWraJ-2" value="HP/Aruba&amp;nbsp;" style="image;html=1;image=img/lib/clip_art/networking/Switch_128x128.png" vertex="1" parent="1">
          <mxGeometry x="532" y="330" width="80" height="80" as="geometry" />
        </mxCell>
        <mxCell id="ZiVLXB9md4UKHXkuWraJ-3" value="Cisco 3750" style="image;html=1;image=img/lib/clip_art/networking/Switch_128x128.png" vertex="1" parent="1">
          <mxGeometry x="231" y="185" width="80" height="80" as="geometry" />
        </mxCell>
        <mxCell id="ZiVLXB9md4UKHXkuWraJ-4" value="VYOS Wireless Router" style="image;html=1;image=img/lib/clip_art/networking/Wireless_Router_128x128.png" vertex="1" parent="1">
          <mxGeometry x="240" y="-42" width="80" height="80" as="geometry" />
        </mxCell>
        <mxCell id="ZiVLXB9md4UKHXkuWraJ-5" value="CIT-NET" style="ellipse;shape=cloud;whiteSpace=wrap;html=1;" vertex="1" parent="1">
          <mxGeometry x="220" y="-286" width="120" height="80" as="geometry" />
        </mxCell>
        <mxCell id="ZiVLXB9md4UKHXkuWraJ-7" value="" style="endArrow=none;html=1;rounded=0;entryX=0.5;entryY=1;entryDx=0;entryDy=0;exitX=0.5;exitY=0;exitDx=0;exitDy=0;" edge="1" parent="1" source="ZiVLXB9md4UKHXkuWraJ-3" target="ZiVLXB9md4UKHXkuWraJ-4">
          <mxGeometry width="50" height="50" relative="1" as="geometry">
            <mxPoint x="198" y="247" as="sourcePoint" />
            <mxPoint x="248" y="197" as="targetPoint" />
          </mxGeometry>
        </mxCell>
        <mxCell id="ZiVLXB9md4UKHXkuWraJ-12" value="Eth0/1" style="edgeLabel;html=1;align=center;verticalAlign=middle;resizable=0;points=[];" vertex="1" connectable="0" parent="ZiVLXB9md4UKHXkuWraJ-7">
          <mxGeometry x="0.6124" y="1" relative="1" as="geometry">
            <mxPoint x="2" y="8" as="offset" />
          </mxGeometry>
        </mxCell>
        <mxCell id="ZiVLXB9md4UKHXkuWraJ-15" value="Eth0/0" style="edgeLabel;html=1;align=center;verticalAlign=middle;resizable=0;points=[];" vertex="1" connectable="0" parent="ZiVLXB9md4UKHXkuWraJ-7">
          <mxGeometry x="-0.7929" relative="1" as="geometry">
            <mxPoint as="offset" />
          </mxGeometry>
        </mxCell>
        <mxCell id="ZiVLXB9md4UKHXkuWraJ-9" value="" style="endArrow=none;html=1;rounded=0;entryX=0.55;entryY=0.95;entryDx=0;entryDy=0;entryPerimeter=0;exitX=0.5;exitY=0;exitDx=0;exitDy=0;" edge="1" parent="1" source="ZiVLXB9md4UKHXkuWraJ-4" target="ZiVLXB9md4UKHXkuWraJ-5">
          <mxGeometry width="50" height="50" relative="1" as="geometry">
            <mxPoint x="227" y="-98" as="sourcePoint" />
            <mxPoint x="277" y="-148" as="targetPoint" />
          </mxGeometry>
        </mxCell>
        <mxCell id="ZiVLXB9md4UKHXkuWraJ-11" value="Eth0" style="edgeLabel;html=1;align=center;verticalAlign=middle;resizable=0;points=[];" vertex="1" connectable="0" parent="ZiVLXB9md4UKHXkuWraJ-9">
          <mxGeometry x="-0.7432" y="3" relative="1" as="geometry">
            <mxPoint x="1" y="6" as="offset" />
          </mxGeometry>
        </mxCell>
        <mxCell id="ZiVLXB9md4UKHXkuWraJ-13" value="" style="endArrow=none;html=1;rounded=0;exitX=1;exitY=0.25;exitDx=0;exitDy=0;entryX=0;entryY=0.5;entryDx=0;entryDy=0;" edge="1" parent="1" source="ZiVLXB9md4UKHXkuWraJ-1" target="ZiVLXB9md4UKHXkuWraJ-3">
          <mxGeometry width="50" height="50" relative="1" as="geometry">
            <mxPoint x="198" y="276" as="sourcePoint" />
            <mxPoint x="166" y="236" as="targetPoint" />
          </mxGeometry>
        </mxCell>
        <mxCell id="ZiVLXB9md4UKHXkuWraJ-16" value="Eth0/1" style="edgeLabel;html=1;align=center;verticalAlign=middle;resizable=0;points=[];" vertex="1" connectable="0" parent="ZiVLXB9md4UKHXkuWraJ-13">
          <mxGeometry x="0.8713" y="-3" relative="1" as="geometry">
            <mxPoint as="offset" />
          </mxGeometry>
        </mxCell>
        <mxCell id="ZiVLXB9md4UKHXkuWraJ-18" value="Eth0/0" style="edgeLabel;html=1;align=center;verticalAlign=middle;resizable=0;points=[];" vertex="1" connectable="0" parent="ZiVLXB9md4UKHXkuWraJ-13">
          <mxGeometry x="-0.8211" y="-1" relative="1" as="geometry">
            <mxPoint as="offset" />
          </mxGeometry>
        </mxCell>
        <mxCell id="ZiVLXB9md4UKHXkuWraJ-14" value="" style="endArrow=none;html=1;rounded=0;exitX=1;exitY=0.5;exitDx=0;exitDy=0;entryX=0;entryY=0.25;entryDx=0;entryDy=0;" edge="1" parent="1" source="ZiVLXB9md4UKHXkuWraJ-3" target="ZiVLXB9md4UKHXkuWraJ-2">
          <mxGeometry width="50" height="50" relative="1" as="geometry">
            <mxPoint x="423" y="329" as="sourcePoint" />
            <mxPoint x="473" y="279" as="targetPoint" />
          </mxGeometry>
        </mxCell>
        <mxCell id="ZiVLXB9md4UKHXkuWraJ-17" value="Eth0/2" style="edgeLabel;html=1;align=center;verticalAlign=middle;resizable=0;points=[];" vertex="1" connectable="0" parent="ZiVLXB9md4UKHXkuWraJ-14">
          <mxGeometry x="-0.8697" y="1" relative="1" as="geometry">
            <mxPoint as="offset" />
          </mxGeometry>
        </mxCell>
        <mxCell id="ZiVLXB9md4UKHXkuWraJ-19" value="Eth0/0" style="edgeLabel;html=1;align=center;verticalAlign=middle;resizable=0;points=[];" vertex="1" connectable="0" parent="ZiVLXB9md4UKHXkuWraJ-14">
          <mxGeometry x="0.8889" y="-3" relative="1" as="geometry">
            <mxPoint y="-1" as="offset" />
          </mxGeometry>
        </mxCell>
        <mxCell id="ZiVLXB9md4UKHXkuWraJ-20" value="PC1" style="shape=mxgraph.cisco.computers_and_peripherals.pc;html=1;pointerEvents=1;dashed=0;fillColor=#036897;strokeColor=#ffffff;strokeWidth=2;verticalLabelPosition=bottom;verticalAlign=top;align=center;outlineConnect=0;" vertex="1" parent="1">
          <mxGeometry x="233" y="553" width="78" height="70" as="geometry" />
        </mxCell>
        <mxCell id="ZiVLXB9md4UKHXkuWraJ-21" value="PC2" style="shape=mxgraph.cisco.computers_and_peripherals.pc;html=1;pointerEvents=1;dashed=0;fillColor=#036897;strokeColor=#ffffff;strokeWidth=2;verticalLabelPosition=bottom;verticalAlign=top;align=center;outlineConnect=0;" vertex="1" parent="1">
          <mxGeometry x="-81" y="565" width="78" height="70" as="geometry" />
        </mxCell>
        <mxCell id="ZiVLXB9md4UKHXkuWraJ-22" value="PC3" style="shape=mxgraph.cisco.computers_and_peripherals.pc;html=1;pointerEvents=1;dashed=0;fillColor=#036897;strokeColor=#ffffff;strokeWidth=2;verticalLabelPosition=bottom;verticalAlign=top;align=center;outlineConnect=0;" vertex="1" parent="1">
          <mxGeometry x="536" y="565" width="78" height="70" as="geometry" />
        </mxCell>
        <mxCell id="ZiVLXB9md4UKHXkuWraJ-23" value="" style="endArrow=none;html=1;rounded=0;entryX=0.5;entryY=1;entryDx=0;entryDy=0;exitX=0.5;exitY=0;exitDx=0;exitDy=0;exitPerimeter=0;" edge="1" parent="1" source="ZiVLXB9md4UKHXkuWraJ-20" target="ZiVLXB9md4UKHXkuWraJ-3">
          <mxGeometry width="50" height="50" relative="1" as="geometry">
            <mxPoint x="194" y="473" as="sourcePoint" />
            <mxPoint x="244" y="423" as="targetPoint" />
          </mxGeometry>
        </mxCell>
        <mxCell id="ZiVLXB9md4UKHXkuWraJ-27" value="Eth0/3" style="edgeLabel;html=1;align=center;verticalAlign=middle;resizable=0;points=[];" vertex="1" connectable="0" parent="ZiVLXB9md4UKHXkuWraJ-23">
          <mxGeometry x="0.7332" y="1" relative="1" as="geometry">
            <mxPoint as="offset" />
          </mxGeometry>
        </mxCell>
        <mxCell id="ZiVLXB9md4UKHXkuWraJ-24" value="" style="endArrow=none;html=1;rounded=0;exitX=0.5;exitY=1;exitDx=0;exitDy=0;entryX=0.5;entryY=0;entryDx=0;entryDy=0;entryPerimeter=0;" edge="1" parent="1" source="ZiVLXB9md4UKHXkuWraJ-1" target="ZiVLXB9md4UKHXkuWraJ-21">
          <mxGeometry width="50" height="50" relative="1" as="geometry">
            <mxPoint x="194" y="473" as="sourcePoint" />
            <mxPoint x="244" y="423" as="targetPoint" />
          </mxGeometry>
        </mxCell>
        <mxCell id="ZiVLXB9md4UKHXkuWraJ-26" value="Eth0/1" style="edgeLabel;html=1;align=center;verticalAlign=middle;resizable=0;points=[];" vertex="1" connectable="0" parent="ZiVLXB9md4UKHXkuWraJ-24">
          <mxGeometry x="-0.5691" y="-1" relative="1" as="geometry">
            <mxPoint as="offset" />
          </mxGeometry>
        </mxCell>
        <mxCell id="ZiVLXB9md4UKHXkuWraJ-25" value="" style="endArrow=none;html=1;rounded=0;entryX=0.5;entryY=1;entryDx=0;entryDy=0;exitX=0.5;exitY=0;exitDx=0;exitDy=0;exitPerimeter=0;" edge="1" parent="1" source="ZiVLXB9md4UKHXkuWraJ-22" target="ZiVLXB9md4UKHXkuWraJ-2">
          <mxGeometry width="50" height="50" relative="1" as="geometry">
            <mxPoint x="194" y="473" as="sourcePoint" />
            <mxPoint x="244" y="423" as="targetPoint" />
          </mxGeometry>
        </mxCell>
        <mxCell id="ZiVLXB9md4UKHXkuWraJ-28" value="Eth0/1" style="edgeLabel;html=1;align=center;verticalAlign=middle;resizable=0;points=[];" vertex="1" connectable="0" parent="ZiVLXB9md4UKHXkuWraJ-25">
          <mxGeometry x="0.6043" y="1" relative="1" as="geometry">
            <mxPoint as="offset" />
          </mxGeometry>
        </mxCell>
        <mxCell id="ZiVLXB9md4UKHXkuWraJ-30" value="Wireless Devices" style="sketch=0;outlineConnect=0;gradientColor=none;fontColor=#545B64;strokeColor=none;fillColor=#879196;dashed=0;verticalLabelPosition=bottom;verticalAlign=top;align=center;html=1;fontSize=12;fontStyle=0;aspect=fixed;shape=mxgraph.aws4.illustration_devices;pointerEvents=1" vertex="1" parent="1">
          <mxGeometry x="612" y="-168" width="100" height="73" as="geometry" />
        </mxCell>
        <mxCell id="ZiVLXB9md4UKHXkuWraJ-32" value="" style="sketch=0;pointerEvents=1;shadow=0;dashed=0;html=1;strokeColor=none;fillColor=#434445;aspect=fixed;labelPosition=center;verticalLabelPosition=bottom;verticalAlign=top;align=center;outlineConnect=0;shape=mxgraph.vvd.wi_fi;rotation=10;" vertex="1" parent="1">
          <mxGeometry x="329" y="-40" width="50" height="50" as="geometry" />
        </mxCell>
        <mxCell id="ZiVLXB9md4UKHXkuWraJ-34" value="" style="sketch=0;pointerEvents=1;shadow=0;dashed=0;html=1;strokeColor=none;fillColor=#434445;aspect=fixed;labelPosition=center;verticalLabelPosition=bottom;verticalAlign=top;align=center;outlineConnect=0;shape=mxgraph.vvd.wi_fi;rotation=-158;" vertex="1" parent="1">
          <mxGeometry x="544" y="-113" width="50" height="50" as="geometry" />
        </mxCell>
        <mxCell id="ZiVLXB9md4UKHXkuWraJ-35" value="" style="endArrow=none;dashed=1;html=1;rounded=0;" edge="1" parent="1" source="ZiVLXB9md4UKHXkuWraJ-32" target="ZiVLXB9md4UKHXkuWraJ-34">
          <mxGeometry width="50" height="50" relative="1" as="geometry">
            <mxPoint x="430" y="18" as="sourcePoint" />
            <mxPoint x="480" y="-32" as="targetPoint" />
          </mxGeometry>
        </mxCell>
        <mxCell id="ZiVLXB9md4UKHXkuWraJ-36" value="Wlan0" style="edgeLabel;html=1;align=center;verticalAlign=middle;resizable=0;points=[];" vertex="1" connectable="0" parent="ZiVLXB9md4UKHXkuWraJ-35">
          <mxGeometry x="-0.6687" y="-4" relative="1" as="geometry">
            <mxPoint x="-11" as="offset" />
          </mxGeometry>
        </mxCell>
      </root>
    </mxGraphModel>
  </diagram>
</mxfile>
